# xmcd CD database file
#
# Track frame offsets:
#	150
#	24217
#	46510
#	70536
#	81502
#	105864
#	131557
#	153360
#	178584
#	203034
#	223371
#	241737
#
# Disc length: 3498 seconds
#
# Revision: 1
# Processed by: cddbd v1.4PL0 Copyright (c) Steve Scherf et al.
# Submitted via: CDex 1.50
#
DISCID=910da80c
DTITLE=Klaus Doldinger - Back to Brazil
DYEAR=2003
DGENRE=Jazz
TTITLE0=Samba Cinema
TTITLE1=Airport
TTITLE2=Praia do Flamengo
TTITLE3=Melancholia
TTITLE4=Moon over Bahia
TTITLE5=After Hours
TTITLE6=Aurora
TTITLE7=Boogie
TTITLE8=Where Have You Been?
TTITLE9=Bellydance
TTITLE10=Jazzaloop
TTITLE11=Rio Jam
EXTD=YEAR: 2003
EXTT0=
EXTT1=
EXTT2=
EXTT3=
EXTT4=
EXTT5=
EXTT6=
EXTT7=
EXTT8=
EXTT9=
EXTT10=
EXTT11=
PLAYORDER=
